# xmcd
#
# Track frame offsets:
#	182
#	16725
#	31992
#	48975
#	62212
#	75282
#	88855
#	98407
#	111995
#	138270
#	148532
#	160895
#
# Disc length: 2408 seconds
#
# Revision: 2
# Processed by: cddbd v1.4PL0 Copyright (c) Steve Scherf et al.
# Submitted via: audiograbber 1.81.03
#
DISCID=8e09660c
DTITLE=Howlin' Wolf - The London Howlin' Wolf Sessions
DYEAR=1972
DGENRE=Blues
TTITLE0=Rockin' Daddy
TTITLE1=I Ain't Superstitious
TTITLE2=Sittin' On Top Of The World
TTITLE3=Worried About My Baby
TTITLE4=What A Woman!
TTITLE5=Poor Boy
TTITLE6=Built For Comfort
TTITLE7=Who's Been Talking?
TTITLE8=The Red Rooster (Part 1 and 2)
TTITLE9=Do The Do
TTITLE10=Highway 49
TTITLE11=Wang-Dang-Doodle
EXTD=
EXTT0=
EXTT1=
EXTT2=
EXTT3=
EXTT4=
EXTT5=
EXTT6=
EXTT7=
EXTT8=
EXTT9=
EXTT10=
EXTT11=
PLAYORDER=
